# xmcd
#
# Track frame offsets: 
#        150
#        16900
#        39262
#        59255
#        77592
#        91252
#        105065
#        131825
#        142895
#        157275
#        175105
#        190175
#        207095
#        224812
#
# Disc length: 3249 seconds
#
# Revision: 1
# Processed by: cddbd v1.5.1PL0 Copyright (c) Steve Scherf et al.
# Submitted via: ExactAudioCopy v0.95a5
#
DISCID=b70caf0e
DTITLE=Janiva Magness - Blues Ain't Pretty
DYEAR=2001
DGENRE=Blues
TTITLE0=Blues Ain't Pretty
TTITLE1=Nobody Loves You Like Me
TTITLE2=It's Your Voodoo Working
TTITLE3=The More I Keep On Losin'
TTITLE4=I Don't Know
TTITLE5=Makin' Money
TTITLE6=St. Gabriel
TTITLE7=Act Right
TTITLE8=Tell Me How Do You Feel
TTITLE9=Help Me To Find My Love
TTITLE10=I'm Gonna Play the Honky Tonks
TTITLE11=Tell Me What I Did Wrong
TTITLE12=Every Dog Has His Day
TTITLE13=Heartbreaker
EXTD=
EXTT0=
EXTT1=
EXTT2=
EXTT3=
EXTT4=
EXTT5=
EXTT6=
EXTT7=
EXTT8=
EXTT9=
EXTT10=
EXTT11=
EXTT12=
EXTT13=
PLAYORDER=
